<svg xmlns="http://www.w3.org/2000/svg" width="16" height="16" viewBox="0 0 16 16">
  <g id="BEAT_Favicon" data-name="BEAT Favicon" transform="translate(-473 -276)">
    <rect id="Rectangle_7" data-name="Rectangle 7" width="16" height="16" rx="2" transform="translate(473 276)" fill="#021155"/>
    <g id="Group_2316-3" data-name="Group 2316-3" transform="translate(477.813 278.667)">
      <path id="Polygon_1-3" data-name="Polygon 1-3" d="M19.814,11.137a1.24,1.24,0,0,1,.44,1.727,1,1,0,0,1-.44.44l-3.393,1.98a1.27,1.27,0,0,1-1.737-.44,1.113,1.113,0,0,1-.157-.627v-3.96A1.263,1.263,0,0,1,15.791,9a1.453,1.453,0,0,1,.63.157Z" transform="translate(-14.497 -9)" fill="#fff"/>
      <path id="Polygon_2-3" data-name="Polygon 2-3" d="M20.2,22.2a1.27,1.27,0,0,1,.43,1.727,1.187,1.187,0,0,1-.44.44L16.352,26.66a1.27,1.27,0,0,1-1.727-.44,1.17,1.17,0,0,1-.187-.667V21.007A1.257,1.257,0,0,1,15.7,19.75a1.307,1.307,0,0,1,.667.187Z" transform="translate(-14.439 -16.167)" fill="#9c27b0" opacity="0.7"/>
    </g>
  </g>
</svg>
